<?xml version="1.0" encoding="UTF-8"?>
<svg id="_图层_2" data-name="图层 2" xmlns="http://www.w3.org/2000/svg" viewBox="0 0 247.45 57.29">
  <defs>
    <style>
      .cls-1 {
        fill: #231815;
      }
    </style>
  </defs>
  <g id="_图层_1-2" data-name="图层 1">
    <g>
      <path class="cls-1" d="m16.08,23.88h-5.21L0,0h5.3l10.78,23.88Z"/>
      <path class="cls-1" d="m55.65,23.88h-5.21L39.56,0h5.3l10.78,23.88Z"/>
      <path class="cls-1" d="m103.5,0h5.3l-10.87,23.88h-5.21L103.5,0Z"/>
      <path class="cls-1" d="m205.62,0h5.3l-10.87,23.88h-5.21L205.62,0Z"/>
      <path class="cls-1" d="m29.67,57.29h-5.21l-10.87-23.88h5.3l10.78,23.88Z"/>
      <path class="cls-1" d="m50.35,33.42h5.3l-10.87,23.88h-5.21l10.78-23.88Z"/>
      <path class="cls-1" d="m68.03,57.29h-5.21l-10.87-23.88h5.3l10.78,23.88Z"/>
      <path class="cls-1" d="m88.71,33.42h5.3l-10.87,23.88h-5.21l10.78-23.88Z"/>
      <path class="cls-1" d="m114.68,33.42h5.3l-10.87,23.88h-5.21l10.78-23.88Z"/>
      <path class="cls-1" d="m127.07,33.42h5.3l-10.87,23.88h-5.21l10.78-23.88Z"/>
      <path class="cls-1" d="m153.04,33.42h5.3l-10.87,23.88h-5.21l10.78-23.88Z"/>
      <path class="cls-1" d="m165.43,33.42h5.3l-10.87,23.88h-5.21l10.78-23.88Z"/>
      <path class="cls-1" d="m191.4,33.42h5.3l-10.87,23.88h-5.21l10.78-23.88Z"/>
      <path class="cls-1" d="m203.79,33.42h5.3l-10.87,23.88h-5.21l10.78-23.88Z"/>
      <path class="cls-1" d="m229.76,33.42h5.3l-10.87,23.88h-5.21l10.78-23.88Z"/>
      <path class="cls-1" d="m242.15,33.42h5.3l-10.87,23.88h-5.21l10.78-23.88Z"/>
    </g>
  </g>
</svg>